<svg width="30" height="30" viewBox="0 0 30 30" fill="none" xmlns="http://www.w3.org/2000/svg">
<path d="M15 30C23.2843 30 30 23.2843 30 15C30 6.71573 23.2843 0 15 0C6.71573 0 0 6.71573 0 15C0 23.2843 6.71573 30 15 30Z" fill="#FFDD67"/>
<path d="M9.25 13.75C10.6307 13.75 11.75 12.6307 11.75 11.25C11.75 9.86929 10.6307 8.75 9.25 8.75C7.86929 8.75 6.75 9.86929 6.75 11.25C6.75 12.6307 7.86929 13.75 9.25 13.75Z" fill="#664E27"/>
<path d="M20.75 13.75C22.1307 13.75 23.25 12.6307 23.25 11.25C23.25 9.86929 22.1307 8.75 20.75 8.75C19.3693 8.75 18.25 9.86929 18.25 11.25C18.25 12.6307 19.3693 13.75 20.75 13.75Z" fill="#664E27"/>
<path d="M23.5 18C23.5 17.6 23.25 17.1 22.6 16.95C20.85 16.6 18.3 16.3 15 16.3C11.7 16.3 9.15 16.65 7.4 16.95C6.75 17.1 6.5 17.6 6.5 18C6.5 21.65 9.3 25.3 15 25.3C20.7 25.3 23.5 21.65 23.5 18Z" fill="#664E27"/>
<path d="M21.35 18.15C20.25 17.95 17.95 17.65 15 17.65C12.05 17.65 9.74998 17.95 8.64998 18.15C7.99998 18.25 7.94998 18.5 7.99998 18.9C8.04998 19.1 8.04998 19.4 8.14998 19.7C8.19998 20 8.29998 20.15 8.79998 20.1C9.74998 20 20.3 20 21.25 20.1C21.75 20.15 21.8 20 21.9 19.7C21.95 19.4 22 19.15 22.05 18.9C22.05 18.5 22 18.25 21.35 18.15Z" fill="white"/>
</svg>
