<svg width="30" height="30" viewBox="0 0 30 30" fill="none" xmlns="http://www.w3.org/2000/svg">
<path d="M15 30C23.2843 30 30 23.2843 30 15C30 6.71573 23.2843 0 15 0C6.71573 0 0 6.71573 0 15C0 23.2843 6.71573 30 15 30Z" fill="#FFDD67"/>
<path d="M9.25 13.8C10.6307 13.8 11.75 12.6807 11.75 11.3C11.75 9.91928 10.6307 8.79999 9.25 8.79999C7.86929 8.79999 6.75 9.91928 6.75 11.3C6.75 12.6807 7.86929 13.8 9.25 13.8Z" fill="#664E27"/>
<path d="M20.75 13.8C22.1307 13.8 23.25 12.6807 23.25 11.3C23.25 9.91928 22.1307 8.79999 20.75 8.79999C19.3693 8.79999 18.25 9.91928 18.25 11.3C18.25 12.6807 19.3693 13.8 20.75 13.8Z" fill="#664E27"/>
<path d="M23.05 17.5C20.9 20.55 18.3 21.3 15 21.3C11.7 21.3 9.10001 20.55 6.95001 17.5C6.65001 17.1 5.85001 17.35 6.05001 17.95C7.20001 21.95 11.05 24.3 15.05 24.3C19.05 24.3 22.9 21.95 24.05 17.95C24.15 17.35 23.35 17.1 23.05 17.5Z" fill="#664E27"/>
</svg>
