<svg width="30" height="30" viewBox="0 0 30 30" fill="none" xmlns="http://www.w3.org/2000/svg">
<path d="M15 30C23.2843 30 30 23.2843 30 15C30 6.71573 23.2843 0 15 0C6.71573 0 0 6.71573 0 15C0 23.2843 6.71573 30 15 30Z" fill="#FFDD67"/>
<path d="M11.75 13.2C12.45 14.65 11.55 16.5 9.80002 17.35C8.05002 18.15 6.05002 17.65 5.35002 16.2C4.95002 15.25 11.35 12.25 11.75 13.2ZM18.25 13.2C17.55 14.65 18.45 16.5 20.2 17.35C21.95 18.15 23.95 17.65 24.65 16.2C25.05 15.25 18.65 12.25 18.25 13.2Z" fill="#664E27"/>
<path d="M10.35 8.90002C9.00001 10.55 5.75001 12.05 3.60001 12.05C3.30001 12.05 3.25001 13.15 3.60001 13.15C6.05001 13.15 9.60001 11.5 11.2 9.60002C11.45 9.35002 10.55 8.70002 10.35 8.90002ZM19.65 8.90002C21 10.55 24.25 12.05 26.4 12.05C26.7 12.05 26.75 13.15 26.4 13.15C23.95 13.15 20.4 11.5 18.8 9.60002C18.55 9.35002 19.45 8.70002 19.65 8.90002Z" fill="#917524"/>
<path d="M19.3 22.2C16.6 20.95 13.4 20.95 10.7 22.2C10.05 22.5 10.85 24.3 11.55 23.95C13.35 23.1 16 22.8 18.5 23.95C19.15 24.25 20 22.55 19.3 22.2Z" fill="#664E27"/>
</svg>
