<svg width="50" height="50" viewBox="0 0 50 50" fill="none" xmlns="http://www.w3.org/2000/svg">
<path d="M37.5 12.5C36.2292 12.5 35.0625 11.7708 34.4792 10.6458L32.9792 7.62499C32.0209 5.72916 29.5209 4.16666 27.3959 4.16666H22.625C20.4792 4.16666 17.9792 5.72916 17.0209 7.62499L15.5209 10.6458C14.9375 11.7708 13.7709 12.5 12.5 12.5C7.97919 12.5 4.39586 16.3125 4.68752 20.8125L5.77086 38.0208C6.02086 42.3125 8.33336 45.8333 14.0834 45.8333H35.9167C41.6667 45.8333 43.9584 42.3125 44.2292 38.0208L45.3125 20.8125C45.38 19.7455 45.228 18.6759 44.8658 17.67C44.5036 16.6641 43.939 15.7431 43.2068 14.964C42.4746 14.185 41.5903 13.5644 40.6088 13.1405C39.6272 12.7167 38.5692 12.4987 37.5 12.5ZM21.875 15.1042H28.125C28.9792 15.1042 29.6875 15.8125 29.6875 16.6667C29.6875 17.5208 28.9792 18.2292 28.125 18.2292H21.875C21.0209 18.2292 20.3125 17.5208 20.3125 16.6667C20.3125 15.8125 21.0209 15.1042 21.875 15.1042ZM25 37.75C21.125 37.75 17.9584 34.6042 17.9584 30.7083C17.9584 26.8125 21.1042 23.6667 25 23.6667C28.8959 23.6667 32.0417 26.8125 32.0417 30.7083C32.0417 34.6042 28.875 37.75 25 37.75Z" fill="#0C1B2A"/>
</svg>
