<svg width="30" height="30" viewBox="0 0 30 30" fill="none" xmlns="http://www.w3.org/2000/svg">
<path d="M7.75 29.7C11.2018 29.7 14 29.3642 14 28.95C14 28.5358 11.2018 28.2 7.75 28.2C4.29822 28.2 1.5 28.5358 1.5 28.95C1.5 29.3642 4.29822 29.7 7.75 29.7Z" fill="#65B1EF"/>
<path d="M21 30C25.9706 30 30 29.597 30 29.1C30 28.6029 25.9706 28.2 21 28.2C16.0294 28.2 12 28.6029 12 29.1C12 29.597 16.0294 30 21 30Z" fill="#65B1EF"/>
<path d="M15 30C23.2843 30 30 23.2843 30 15C30 6.71573 23.2843 0 15 0C6.71573 0 0 6.71573 0 15C0 23.2843 6.71573 30 15 30Z" fill="#FFDD67"/>
<path d="M21.35 22C20.65 20.2 18.95 19 15 19C11 19 9.34998 20.2 8.64998 22C8.29998 22.95 8.79998 24.5 8.79998 24.5C9.44998 26.45 9.34998 27 15 27C20.65 27 20.55 26.45 21.2 24.5C21.2 24.5 21.75 22.95 21.35 22Z" fill="#664E27"/>
<path d="M19.5 21.5C19.55 21.35 19.5 21.2 19.4 21.1C19.4 21.1 18.4 20 15 20C11.6 20 10.6 21.1 10.6 21.1C10.5 21.15 10.5 21.35 10.5 21.5L10.6 21.8C10.65 21.95 10.75 22.05 10.85 22.05H19.15C19.25 22.05 19.4 21.95 19.4 21.8L19.5 21.5Z" fill="white"/>
<path d="M21.25 29.25H24.65C28.75 24.3 23.9 19.25 25.1 14.35C23.95 14.35 22.8 15.6 21.7 15.6C20.1 20.35 25.35 24.3 21.25 29.25ZM8.75 29.25H5.35C1.25 24.3 6.1 19.25 4.9 14.35C6.05 14.35 7.2 15.6 8.3 15.6C9.9 20.35 4.65 24.3 8.75 29.25Z" fill="#65B1EF"/>
<path d="M19.35 8.15C20.85 9.65 22.95 10.4 25.05 10.2C25.35 10.15 25.5 11.25 25.15 11.3C22.7 11.5 20.3 10.65 18.6 8.9C18.3 8.65 19.15 7.95 19.35 8.15ZM4.99999 10.2C7.09999 10.4 9.19999 9.65 10.7 8.15C10.9 7.95 11.75 8.65 11.5 8.9C9.79999 10.65 7.34999 11.5 4.94999 11.3C4.49999 11.3 4.69999 10.2 4.99999 10.2Z" fill="#917524"/>
<path d="M16.95 14.15C19.05 18.15 23.3 18.15 25.4 14.15C25.5 13.95 25.25 13.85 24.9 13.65C22.8 15.3 19.35 15.15 17.45 13.65C17.15 13.85 16.85 13.95 16.95 14.15ZM4.60004 14.15C6.70004 18.15 10.95 18.15 13.05 14.15C13.15 13.95 12.9 13.85 12.55 13.65C10.45 15.3 7.00004 15.15 5.10004 13.65C4.75004 13.85 4.50004 13.95 4.60004 14.15Z" fill="#664E27"/>
</svg>
