<svg width="30" height="30" viewBox="0 0 30 30" fill="none" xmlns="http://www.w3.org/2000/svg">
<path d="M15 30C23.2843 30 30 23.2843 30 15C30 6.71573 23.2843 0 15 0C6.71573 0 0 6.71573 0 15C0 23.2843 6.71573 30 15 30Z" fill="#FFDD67"/>
<path d="M9.25 16.3C10.6307 16.3 11.75 15.1807 11.75 13.8C11.75 12.4193 10.6307 11.3 9.25 11.3C7.86929 11.3 6.75 12.4193 6.75 13.8C6.75 15.1807 7.86929 16.3 9.25 16.3Z" fill="#664E27"/>
<path d="M20.75 16.3C22.1307 16.3 23.25 15.1807 23.25 13.8C23.25 12.4193 22.1307 11.3 20.75 11.3C19.3693 11.3 18.25 12.4193 18.25 13.8C18.25 15.1807 19.3693 16.3 20.75 16.3Z" fill="#664E27"/>
<path d="M24.6 8.35001C23 7.00001 20.85 6.40001 18.75 6.80001C18.45 6.85001 18.2 5.80001 18.55 5.70001C20.95 5.25001 23.45 5.95001 25.3 7.50001C25.6 7.75001 24.8 8.55001 24.6 8.35001ZM11.25 6.70001C9.15003 6.35001 7.00003 6.90001 5.40003 8.25001C5.20003 8.45001 4.40003 7.65001 4.70003 7.40001C6.55003 5.80001 9.05003 5.15001 11.45 5.60001C11.8 5.70001 11.55 6.80001 11.25 6.70001Z" fill="#917524"/>
<path d="M19.3 21.2C16.6 19.95 13.4 19.95 10.7 21.2C10.05 21.5 10.85 23.3 11.55 22.95C13.35 22.1 16 21.8 18.5 22.95C19.15 23.25 20 21.55 19.3 21.2Z" fill="#664E27"/>
</svg>
